<svg width="174" height="60" viewBox="0 0 174 60" fill="none" xmlns="http://www.w3.org/2000/svg">
<g clip-path="url(#clip0_1_63)">
<path d="M36.9819 21.4974C37.6174 16.6531 34.5283 13.007 30.5827 11.3273C25.8724 9.31992 29.016 10.7572 10.9941 5.99133C5.074 4.42433 2.93978 2.92903 2.2465 1.6488C2.06978 1.32106 2.2601 0.901145 2.62713 0.843108C4.48267 0.556337 9.15213 2.57056 9.15213 2.57056C5.78428 0.665583 4.37053 0.204701 3.3306 0.0374183C2.9058 -0.0308605 2.08338 -0.0513442 1.61099 0.41978C-0.540216 2.34183 -0.951427 10.0334 2.97037 12.471C7.14025 15.0622 15.4494 15.605 25.8894 18.5819C34.4807 21.0331 33.8418 25.4201 31.8775 27.8201C31.4595 27.5811 31.0279 27.366 30.5861 27.1782C25.8758 25.1708 29.0194 26.6081 10.9975 21.8423C5.0774 20.2753 2.94318 18.7834 2.2499 17.5031C2.07318 17.1754 2.26349 16.7555 2.63053 16.6974C4.48607 16.4107 9.15553 18.4249 9.15553 18.4249C5.78767 16.5199 4.37392 16.059 3.334 15.8918C2.9092 15.8235 2.08678 15.803 1.61439 16.2741C-0.536818 18.1928 -0.948029 25.8878 2.97037 28.3253C7.14025 30.9165 15.4494 31.4593 25.8894 34.4363C34.4807 36.8875 33.8418 41.2744 31.8775 43.6744C31.4595 43.4354 31.0279 43.2203 30.5861 43.0326C25.8758 41.0252 29.0194 42.4625 10.9975 37.6966C5.0774 36.1296 2.94318 34.6377 2.2499 33.3575C2.07318 33.0297 2.26349 32.6098 2.63053 32.5518C4.48607 32.265 9.15553 34.2792 9.15553 34.2792C5.78767 32.3743 4.37392 31.9134 3.334 31.7461C2.9092 31.6778 2.08678 31.6573 1.61439 32.1285C-0.536818 34.0471 -0.948029 41.7421 2.97037 44.1797C7.14025 46.7708 15.4494 47.3137 25.8894 50.2906C35.0686 52.9125 33.7092 57.7398 31.4561 59.993C34.219 58.5114 36.6251 55.9236 36.9819 53.2027C37.5359 48.9865 35.2657 45.6784 32.0712 43.7836C34.569 42.2644 36.6523 39.8644 36.9819 37.345C37.5359 33.1287 35.2657 29.8206 32.0712 27.9259C34.569 26.4067 36.6523 24.0067 36.9819 21.4872V21.4974Z" fill="#19305A"/>
<path d="M58.2934 30.2679C59.1498 29.7012 59.578 28.5985 59.578 26.9633C59.578 25.2358 58.8609 23.9385 57.4268 23.0679C56.3971 22.4193 55.2348 22.095 53.94 22.095H43.1194V47.9112H53.3147C54.9324 47.9112 56.5704 47.5049 58.222 46.6958C61.4811 45.1186 63.1124 42.384 63.1124 38.4887C63.1124 34.3032 61.5049 31.5652 58.29 30.2645L58.2934 30.2679ZM45.7906 24.8432H53.94C54.5177 24.8432 55.0547 24.949 55.5543 25.1573C56.3971 25.5157 56.8185 26.12 56.8185 26.9667C56.8083 27.3832 56.669 27.7655 56.4039 28.1137C55.9417 28.7385 55.1261 29.0526 53.9604 29.0526H45.794V24.8466L45.7906 24.8432ZM56.9748 44.3675C55.7956 44.9479 54.5755 45.2415 53.3147 45.2551H45.7872V31.7291H53.3147C54.5619 31.7291 55.782 32.0261 56.9748 32.6167C59.2416 33.7536 60.3733 35.7098 60.3733 38.4921C60.3733 41.2745 59.2416 43.2341 56.9748 44.3675Z" fill="#19305A"/>
<path d="M133.732 47.9146H153.602V45.2039H136.488V45.18L153.602 44.545L136.488 43.9544V43.8145L153.602 43.1829L136.488 42.5889V42.4489L153.602 41.8173L136.488 41.2233V41.0867L153.602 40.4517L136.488 39.8611V39.7211L153.602 39.0896L136.488 38.4955V38.3556L153.602 37.724L136.488 37.13V36.99L153.602 36.3584L136.488 35.7678V35.6278L153.602 34.9963L136.488 34.4022V34.2623L153.602 33.6307L136.488 33.0367V32.8967L153.602 32.2651L136.488 31.6745V31.5345L153.602 30.9029L136.488 30.3089V30.1689L153.602 29.5374L136.488 28.9433V28.8034L153.602 28.1718L136.488 27.5812V27.4412L153.602 26.8096L136.488 26.2156V26.0756L153.602 25.444L136.488 24.85V24.8261H153.602V22.0984H133.732V47.9146Z" fill="#19305A"/>
<path d="M170.445 39.0145C172.814 37.3416 174 34.8563 174 31.5584C174 27.6563 172.369 24.9081 169.11 23.3172C167.468 22.5046 165.834 22.0984 164.202 22.0984H155.863V47.9146H158.551V24.7783H164.206C165.467 24.7783 166.69 25.0753 167.883 25.666C170.136 26.7926 171.264 28.7556 171.264 31.555C171.264 34.3544 170.136 36.3175 167.883 37.4441C166.68 38.0347 165.456 38.3317 164.206 38.3317H159.577L162.143 40.8921L169.358 47.9112H173.293L166.027 40.8375C167.495 40.6634 168.97 40.0523 170.449 39.0076L170.445 39.0145Z" fill="#19305A"/>
<path d="M126.653 30.2679C127.509 29.7012 127.938 28.5985 127.938 26.9633C127.938 25.2358 127.22 23.9385 125.786 23.0679C124.757 22.4193 123.594 22.095 122.3 22.095H111.479V47.9112H121.674C123.292 47.9112 124.93 47.5049 126.582 46.6958C129.841 45.1186 131.472 42.384 131.472 38.4887C131.472 34.3032 129.864 31.5652 126.65 30.2645L126.653 30.2679ZM114.15 24.8432H122.3C122.877 24.8432 123.414 24.949 123.914 25.1573C124.757 25.5157 125.178 26.12 125.178 26.9667C125.168 27.3832 125.028 27.7655 124.763 28.1137C124.301 28.7385 123.486 29.0526 122.32 29.0526H114.153V24.8466L114.15 24.8432ZM125.334 44.3675C124.155 44.9479 122.935 45.2415 121.674 45.2551H114.147V31.7291H121.674C122.921 31.7291 124.141 32.0261 125.334 32.6167C127.601 33.7536 128.733 35.7098 128.733 38.4921C128.733 41.2745 127.601 43.2341 125.334 44.3675Z" fill="#19305A"/>
<path d="M109.589 31.5584C109.589 27.6563 107.958 24.9081 104.699 23.3172C103.058 22.5046 101.423 22.0984 99.7917 22.0984H91.4519V47.9146H94.1401V24.7783H99.7951C101.056 24.7783 102.279 25.0753 103.472 25.666C105.725 26.7926 106.854 28.7556 106.854 31.555C106.854 34.3544 105.725 36.3175 103.472 37.4441C102.269 38.0347 101.046 38.3317 99.7951 38.3317H95.1664L97.7322 40.8921L104.947 47.9112H108.882L101.617 40.8375C103.085 40.6634 104.56 40.0523 106.038 39.0076C108.407 37.3348 109.593 34.8495 109.593 31.5516L109.589 31.5584Z" fill="#19305A"/>
<path d="M75.408 22.0984L73.7258 25.188V25.2051L61.5865 47.9146H64.8626L68.9136 40.322L75.391 40.2435V37.6011L70.3307 37.6625L75.391 28.1718L86.0043 47.9146H89.1955L76.9679 25.0173L75.408 22.0984Z" fill="#19305A"/>
</g>
<defs>
<clipPath id="clip0_1_63">
<rect width="174" height="60" fill="white"/>
</clipPath>
</defs>
</svg>
