<svg width="22" height="22" viewBox="0 0 22 22" fill="none" xmlns="http://www.w3.org/2000/svg">
<path d="M11.1142 21.3448C5.40969 21.3448 0.769409 16.7045 0.769409 11C0.769409 5.29543 5.40969 0.655151 11.1142 0.655151C16.8188 0.655151 21.4591 5.29543 21.4591 11C21.4591 16.7045 16.818 21.3448 11.1142 21.3448ZM11.1142 2.31032C6.32251 2.31032 2.42458 6.20825 2.42458 11C2.42458 15.7917 6.32251 19.6896 11.1142 19.6896C15.906 19.6896 19.8039 15.7917 19.8039 11C19.8039 6.20825 15.9051 2.31032 11.1142 2.31032ZM11.048 11.7614H5.73493C5.51544 11.7614 5.30494 11.6742 5.14973 11.519C4.99453 11.3638 4.90734 11.1533 4.90734 10.9338C4.90734 10.7143 4.99453 10.5038 5.14973 10.3486C5.30494 10.1934 5.51544 10.1062 5.73493 10.1062H10.2204V3.9655C10.2204 3.74601 10.3076 3.53551 10.4628 3.3803C10.618 3.2251 10.8285 3.13791 11.048 3.13791C11.2675 3.13791 11.478 3.2251 11.6332 3.3803C11.7884 3.53551 11.8756 3.74601 11.8756 3.9655V10.9338C11.8756 11.1533 11.7884 11.3638 11.6332 11.519C11.478 11.6742 11.2675 11.7614 11.048 11.7614Z" fill="#6D6D6D"/>
</svg>
