<svg width="18" height="18" viewBox="0 0 18 18" fill="none" xmlns="http://www.w3.org/2000/svg">
<path d="M14 10.6667C13.5076 10.67 13.0221 10.7823 12.5783 10.9955C12.1346 11.2088 11.7435 11.5177 11.4333 11.9001L7.18334 9.94172C7.38316 9.32984 7.38316 8.67026 7.18334 8.05839L11.4333 6.10005C11.9347 6.70503 12.6336 7.11345 13.4068 7.25325C14.18 7.39305 14.9777 7.25524 15.6591 6.86414C16.3406 6.47304 16.862 5.85379 17.1313 5.11567C17.4006 4.37756 17.4005 3.56804 17.1311 2.82998C16.8616 2.09191 16.3401 1.47276 15.6586 1.08178C14.9771 0.690799 14.1793 0.553133 13.4062 0.693074C12.633 0.833016 11.9342 1.24157 11.4329 1.84663C10.9317 2.4517 10.6603 3.21437 10.6667 4.00005C10.6692 4.19858 10.6887 4.39653 10.725 4.59172L6.325 6.61672C5.8559 6.15804 5.26187 5.84798 4.61734 5.72541C3.97281 5.60284 3.30644 5.67319 2.70171 5.92766C2.09699 6.18214 1.58081 6.6094 1.21784 7.15594C0.854868 7.70247 0.661255 8.34397 0.661255 9.00005C0.661255 9.65614 0.854868 10.2976 1.21784 10.8442C1.58081 11.3907 2.09699 11.818 2.70171 12.0724C3.30644 12.3269 3.97281 12.3973 4.61734 12.2747C5.26187 12.1521 5.8559 11.8421 6.325 11.3834L10.725 13.4084C10.6887 13.6036 10.6692 13.8015 10.6667 14.0001C10.6667 14.6593 10.8622 15.3038 11.2284 15.852C11.5947 16.4001 12.1153 16.8274 12.7244 17.0797C13.3335 17.3319 14.0037 17.398 14.6503 17.2693C15.2969 17.1407 15.8909 16.8233 16.357 16.3571C16.8232 15.8909 17.1407 15.297 17.2693 14.6504C17.3979 14.0038 17.3319 13.3335 17.0796 12.7244C16.8273 12.1154 16.4001 11.5948 15.8519 11.2285C15.3037 10.8622 14.6593 10.6667 14 10.6667ZM14 2.33339C14.3296 2.33339 14.6519 2.43114 14.926 2.61427C15.2 2.79741 15.4137 3.05771 15.5398 3.36225C15.6659 3.66679 15.699 4.0019 15.6346 4.32521C15.5703 4.64851 15.4116 4.94548 15.1785 5.17857C14.9454 5.41165 14.6485 5.57039 14.3252 5.6347C14.0019 5.69901 13.6667 5.666 13.3622 5.53985C13.0577 5.41371 12.7974 5.20009 12.6142 4.926C12.4311 4.65192 12.3333 4.32969 12.3333 4.00005C12.3333 3.55803 12.5089 3.1341 12.8215 2.82154C13.1341 2.50898 13.558 2.33339 14 2.33339ZM4 10.6667C3.67037 10.6667 3.34813 10.569 3.07405 10.3858C2.79997 10.2027 2.58635 9.9424 2.4602 9.63786C2.33406 9.33332 2.30105 8.99821 2.36536 8.6749C2.42967 8.3516 2.5884 8.05463 2.82149 7.82154C3.05458 7.58846 3.35155 7.42972 3.67485 7.36541C3.99815 7.3011 4.33327 7.33411 4.63781 7.46026C4.94235 7.5864 5.20265 7.80002 5.38579 8.0741C5.56892 8.34819 5.66667 8.67042 5.66667 9.00005C5.66667 9.44208 5.49108 9.866 5.17851 10.1786C4.86595 10.4911 4.44203 10.6667 4 10.6667ZM14 15.6667C13.6704 15.6667 13.3481 15.569 13.0741 15.3858C12.8 15.2027 12.5863 14.9424 12.4602 14.6379C12.3341 14.3333 12.3011 13.9982 12.3654 13.6749C12.4297 13.3516 12.5884 13.0546 12.8215 12.8215C13.0546 12.5885 13.3516 12.4297 13.6749 12.3654C13.9982 12.3011 14.3333 12.3341 14.6378 12.4603C14.9424 12.5864 15.2027 12.8 15.3858 13.0741C15.5689 13.3482 15.6667 13.6704 15.6667 14.0001C15.6667 14.4421 15.4911 14.866 15.1785 15.1786C14.866 15.4911 14.442 15.6667 14 15.6667Z" fill="white"/>
</svg>
